<svg width="19" height="18" viewBox="0 0 19 18" fill="none" xmlns="http://www.w3.org/2000/svg">
<path d="M10.3278 15.5747L9.36957 16.5329L8.41138 15.5747L8.40057 15.5639L8.38911 15.5538C5.94463 13.3913 3.96324 11.6153 2.58812 9.94219C1.2187 8.27607 0.5 6.76987 0.5 5.15326C0.5 2.52484 2.52484 0.5 5.15326 0.5C6.59664 0.5 8.05068 1.18299 8.98787 2.29058L9.36957 2.74167L9.75126 2.29058C10.6885 1.18299 12.1425 0.5 13.5859 0.5C16.2143 0.5 18.2391 2.52484 18.2391 5.15326C18.2391 6.76987 17.5204 8.27607 16.151 9.94219C14.7759 11.6153 12.7945 13.3913 10.35 15.5538L10.3386 15.5639L10.3278 15.5747Z" stroke="#F48181"/>
</svg>
