<svg width="30" height="30" viewBox="0 0 30 30" fill="none" xmlns="http://www.w3.org/2000/svg">
<g opacity="0.3">
<path d="M29.91 4.50243C29.8919 4.47844 29.8799 4.45438 29.862 4.43648C29.6939 4.2324 29.4179 4.16639 29.1778 4.26249L0.386406 15.2198C0.134404 15.3157 -0.0216215 15.5619 0.0024361 15.8317C0.0204635 16.0959 0.218447 16.3178 0.482446 16.3659L8.35539 17.8961L10.0416 25.271L10.0476 25.3131C10.0596 25.361 10.0716 25.4031 10.0956 25.445C10.1076 25.469 10.1256 25.499 10.1436 25.5231C10.1676 25.5591 10.1976 25.5892 10.2216 25.619C10.2996 25.691 10.3956 25.745 10.4976 25.7632C10.5097 25.7691 10.5276 25.775 10.5397 25.775C10.5697 25.775 10.6057 25.7811 10.6357 25.7811C10.6777 25.7811 10.7137 25.775 10.7556 25.7691C10.7737 25.7632 10.7916 25.7632 10.8156 25.7512C10.8216 25.7512 10.8276 25.7512 10.8336 25.7451C10.8696 25.7331 10.8997 25.7212 10.9297 25.7031H10.9357C10.9476 25.6911 10.9657 25.6851 10.9777 25.6731L19.2346 19.8704L23.9032 20.7525C23.9392 20.7585 23.9813 20.7585 24.0173 20.7585C24.2693 20.7585 24.4973 20.6025 24.5813 20.3625L29.964 5.03049C29.976 5.0006 29.982 4.97057 29.988 4.94055C30 4.89859 30 4.8506 30 4.80852C30 4.70048 29.97 4.59238 29.91 4.50243ZM14.2241 17.9501C14.1881 17.98 14.1521 18.0221 14.134 18.0641C14.1221 18.0702 14.1161 18.0761 14.1101 18.0881L10.8817 23.5728L9.53758 17.674L24.4553 8.54697L14.2241 17.9501Z" fill="black"/>
</g>
</svg>
