<svg width="18" height="18" viewBox="0 0 18 18" fill="none" xmlns="http://www.w3.org/2000/svg">
<path d="M16.5603 4.65H14.0031L12.8031 1.65H5.1969L3.9969 4.65H3.6V3.15H1.8V4.65H1.4397C0.6456 4.65 0 5.2956 0 6.0897V14.9001C0 15.6996 0.6504 16.35 1.4499 16.35H16.5501C17.3496 16.35 18 15.6996 18 14.9001V6.0897C18 5.2956 17.3544 4.65 16.5603 4.65ZM2.4 3.75H3V4.65H2.4V3.75ZM17.4 14.9001C17.4 15.369 17.0187 15.75 16.5501 15.75H1.4499C0.9813 15.75 0.6 15.3687 0.6 14.9001V6.0897C0.6 5.6268 0.9768 5.25 1.4397 5.25H1.8H3.6H4.4031L5.6031 2.25H12.3969L13.5969 5.25H16.5603C17.0232 5.25 17.4 5.6268 17.4 6.0897V14.9001Z" fill="#DBDBDB"/>
<path d="M9.00001 4.35C6.02251 4.35 3.60001 6.7725 3.60001 9.75C3.60001 12.7275 6.02251 15.15 9.00001 15.15C11.9775 15.15 14.4 12.7275 14.4 9.75C14.4 6.7725 11.9775 4.35 9.00001 4.35ZM9.00001 14.55C6.35341 14.55 4.20001 12.3966 4.20001 9.75C4.20001 7.1034 6.35341 4.95 9.00001 4.95C11.6466 4.95 13.8 7.1034 13.8 9.75C13.8 12.3966 11.6466 14.55 9.00001 14.55Z" fill="#DBDBDB"/>
<path d="M8.99999 6.15C7.01489 6.15 5.39999 7.7649 5.39999 9.75C5.39999 11.7351 7.01489 13.35 8.99999 13.35C10.9851 13.35 12.6 11.7351 12.6 9.75C12.6 7.7649 10.9851 6.15 8.99999 6.15ZM8.99999 12.75C7.34579 12.75 5.99999 11.4042 5.99999 9.75C5.99999 8.0958 7.34579 6.75 8.99999 6.75C10.6542 6.75 12 8.0958 12 9.75C12 11.4042 10.6542 12.75 8.99999 12.75Z" fill="#DBDBDB"/>
<path d="M15.6 5.85C14.9382 5.85 14.4 6.3882 14.4 7.05C14.4 7.7118 14.9382 8.25 15.6 8.25C16.2618 8.25 16.8 7.7118 16.8 7.05C16.8 6.3882 16.2618 5.85 15.6 5.85ZM15.6 7.65C15.2691 7.65 15 7.3809 15 7.05C15 6.7191 15.2691 6.45 15.6 6.45C15.9309 6.45 16.2 6.7191 16.2 7.05C16.2 7.3809 15.9309 7.65 15.6 7.65Z" fill="#DBDBDB"/>
</svg>
